<svg id="Capa_1" enable-background="new 0 0 511.401 511.401" height="512" viewBox="0 0 511.401 511.401" width="512" xmlns="http://www.w3.org/2000/svg"><g><g><g id="XMLID_163_"><g><path d="m412.947 76.582c35.92 42.84 51.402 107.175 22.642 155.105l-74.562 103.005c-2.79 4.64-4.63 9.8-5.41 15.16l-10.39 91.86c-1.23 10.79-6.4 20.26-13.98 27.03-7.59 6.78-17.58 10.85-28.44 10.85-20.85 0-38.64-15.06-42.09-35.61l-15.91-111.42c-.55-3.85-2.28-7.44-4.94-10.26l-.23-.25c-3.72-3.94-8.71-5.91-13.7-5.91-5.16 0-10.32 2.11-14.06 6.31-2.44 2.74-4.02 6.12-4.56 9.74l-16.74 112.1c-3.58 20.41-21.31 35.3-42.04 35.3h-.27c-21.72 0-39.97-16.3-42.42-37.88l-10.39-91.86c-.78-5.36-2.62-10.52-5.41-15.16l-63.88-106.44c-12.52-20.87-18.68-44.19-18.68-67.42 0-30.12 10.36-60.06 30.64-84.25 21.5-25.64 51.55-41.63 83.69-45.77 17.95-2.32 36.2-.56 53.55 4.58l50.17 14.83 50.17-14.83c17.35-5.14 35.6-6.9 53.55-4.58 16.07 2.07 31.62 7.1 45.84 14.82 14.21 7.72 27.1 18.13 37.85 30.95z" fill="#efedef"/></g></g><g><path d="m159.19 441.712-10.39-91.86c-.78-5.36-2.62-10.52-5.41-15.16l-63.88-106.44c-12.52-20.87-18.68-44.19-18.68-67.42 0-30.12 10.36-60.06 30.64-84.25 19.098-22.776 44.945-37.929 73.009-43.934-14.011-2.941-28.43-3.676-42.662-1.836-32.14 4.14-62.19 20.13-83.69 45.77-20.28 24.19-30.64 54.13-30.64 84.25 0 23.23 6.16 46.55 18.68 67.42l63.88 106.44c2.79 4.64 4.63 9.8 5.41 15.16l10.39 91.86c2.45 21.58 20.7 37.88 42.42 37.88h.27c9.949 0 19.201-3.437 26.535-9.26-8.611-6.838-14.558-16.954-15.882-28.62z" fill="#e5e1e5"/></g><g id="XMLID_164_"><g><path d="m375.097 45.632c-4.262-2.314-8.646-4.381-13.125-6.204-69.948 11.596-123.459 72.511-123.459 145.701 0 73.763 54.357 135.068 125.118 145.967l71.959-99.409c28.76-47.93 13.278-112.265-22.642-155.105-10.751-12.82-23.641-23.23-37.851-30.95z" fill="#e5e1e5"/><path d="m386.202 67.429c65 0 117.7 52.7 117.7 117.7s-52.7 117.69-117.7 117.69-117.69-52.69-117.69-117.69 52.69-117.7 117.69-117.7z" fill="#a7e6ef"/></g></g><g id="XMLID_165_"><g><path d="m386.202 97.429c48.36 0 87.7 39.34 87.7 87.7 0 48.35-39.34 87.69-87.7 87.69-48.35 0-87.69-39.34-87.69-87.69 0-48.36 39.34-87.7 87.69-87.7z" fill="#6dd8e6"/></g></g><path d="m429.495 166.17h-24.332v-24.332c0-2.54-2.059-4.599-4.599-4.599h-28.717c-2.54 0-4.599 2.059-4.599 4.599v24.332h-24.332c-2.54 0-4.599 2.059-4.599 4.599v28.717c0 2.54 2.059 4.599 4.599 4.599h24.332v24.332c0 2.54 2.059 4.599 4.599 4.599h28.717c2.54 0 4.599-2.059 4.599-4.599v-24.332h24.332c2.54 0 4.599-2.059 4.599-4.599v-28.717c.001-2.54-2.058-4.599-4.599-4.599z" fill="#eaf9fa"/></g><g><path d="m364.888 329.294c-3.552-2.133-8.159-.98-10.29 2.571-3.316 5.525-5.468 11.56-6.397 17.938-.011.079-.021.158-.031.238l-10.396 91.861c-2.015 17.803-17.045 31.228-34.961 31.228-17.222 0-31.795-12.305-34.685-29.274l-3.338-23.382c-.585-4.101-4.382-6.952-8.485-6.365-4.101.585-6.95 4.384-6.365 8.485l3.352 23.479c.009.061.018.121.028.182 4.073 24.265 24.888 41.876 49.492 41.876 25.555 0 46.992-19.148 49.867-44.541l10.382-91.737c.65-4.36 2.129-8.487 4.398-12.268 2.131-3.552.98-8.16-2.571-10.291z"/><path d="m32.604 225.428c-27.106-45.166-22.577-102.628 11.271-142.989 24.866-29.652 62.771-46.098 101.396-43.987 8.651.472 17.634 2.097 26.699 4.831l51.234 15.448 37.698 13.349c.828.293 1.672.432 2.503.432 3.088 0 5.98-1.922 7.07-4.999 1.383-3.904-.662-8.19-4.566-9.573l-16.285-5.766 29.55-8.91c8.696-2.622 17.269-4.218 25.482-4.743 18.028-1.153 36.447 1.75 53.27 8.395 3.852 1.523 8.209-.367 9.731-4.22 1.521-3.853-.368-8.209-4.22-9.731-18.865-7.452-39.522-10.705-59.739-9.414-9.355.599-19.063 2.399-28.854 5.352l-49.304 14.865-49.24-14.846c-10.206-3.077-20.371-4.91-30.211-5.447-43.314-2.369-85.822 16.075-113.707 49.325-37.957 45.26-43.036 109.698-12.639 160.346l20.29 33.809c1.406 2.344 3.89 3.642 6.438 3.642 1.313 0 2.644-.345 3.852-1.07 3.552-2.131 4.703-6.738 2.571-10.29z"/><path d="m253.906 397.306c4.101-.585 6.95-4.384 6.365-8.485l-8.036-56.287c-.772-5.411-3.163-10.372-6.915-14.349l-.229-.242c-5.051-5.354-12.191-8.359-19.529-8.259-7.36.106-14.388 3.319-19.283 8.815-3.415 3.833-5.62 8.544-6.378 13.622l-16.722 111.995c-2.996 16.817-17.549 29.013-34.64 29.013h-.271c-17.917 0-32.947-13.425-34.961-31.228l-10.396-91.861c-.009-.08-.02-.159-.031-.238-.929-6.377-3.082-12.413-6.397-17.938l-27-44.989c-2.131-3.552-6.737-4.704-10.29-2.571-3.552 2.131-4.703 6.738-2.571 10.29l27 44.989c2.269 3.781 3.749 7.908 4.398 12.268l10.382 91.737c2.874 25.393 24.312 44.541 49.867 44.541h.271c24.419 0 45.208-17.457 49.43-41.509.011-.063.021-.126.031-.189l16.737-112.094c.326-2.185 1.275-4.211 2.744-5.861 2.137-2.4 5.083-3.747 8.297-3.793 3.208-.029 6.197 1.216 8.404 3.555l.229.243c1.613 1.71 2.642 3.845 2.974 6.173l8.036 56.287c.584 4.1 4.381 6.947 8.484 6.365z"/><path d="m386.206 59.933c-69.033 0-125.195 56.163-125.195 125.195s56.162 125.195 125.195 125.195 125.195-56.162 125.195-125.195-56.163-125.195-125.195-125.195zm0 235.39c-60.762 0-110.195-49.433-110.195-110.195s49.433-110.195 110.195-110.195 110.195 49.434 110.195 110.195-49.434 110.195-110.195 110.195z"/><path d="m386.206 89.933c-52.491 0-95.195 42.705-95.195 95.195 0 18.429 5.302 36.326 15.333 51.755 2.258 3.473 6.903 4.457 10.376 2.2 3.473-2.258 4.458-6.903 2.2-10.376-8.446-12.99-12.91-28.06-12.91-43.58 0-44.22 35.975-80.195 80.195-80.195s80.195 35.976 80.195 80.195-35.976 80.195-80.195 80.195c-16.991 0-33.241-5.275-46.991-15.256-3.354-2.434-8.042-1.688-10.476 1.664s-1.688 8.042 1.664 10.476c16.329 11.852 35.625 18.116 55.802 18.116 52.491 0 95.195-42.704 95.195-95.195s-42.703-95.194-95.193-95.194z"/><path d="m400.564 129.739h-28.717c-6.671 0-12.099 5.428-12.099 12.099v16.832h-16.832c-6.671 0-12.099 5.428-12.099 12.099v28.717c0 6.671 5.428 12.099 12.099 12.099h16.832v16.832c0 6.671 5.428 12.099 12.099 12.099h28.717c6.671 0 12.099-5.428 12.099-12.099v-16.832h16.832c6.671 0 12.099-5.428 12.099-12.099v-28.717c0-6.671-5.428-12.099-12.099-12.099h-16.832v-16.832c.001-6.671-5.427-12.099-12.099-12.099zm26.031 43.931v22.916h-21.431c-4.142 0-7.5 3.358-7.5 7.5v21.431h-22.916v-21.431c0-4.142-3.358-7.5-7.5-7.5h-21.431v-22.916h21.431c4.142 0 7.5-3.358 7.5-7.5v-21.431h22.916v21.431c0 4.142 3.358 7.5 7.5 7.5z"/></g></g></svg>